<svg id="Capa_1" enable-background="new 0 0 512 512" height="512" viewBox="0 0 512 512" width="512" xmlns="http://www.w3.org/2000/svg"><g><g><path d="m315.15 221.967c-34.105-28.056 12.994-182.769-142.164-160.601-120.041 17.151-196.875 188.462-122.107 323.803s270.446 151.789 349.942 55.841c98.691-119.113-30.75-173.864-85.671-219.043zm62.469 137.811c-13.202 11.915-36.105 8.056-51.155-8.62-15.051-16.676-16.55-39.853-3.348-51.768s36.105-8.056 51.155 8.62c15.051 16.675 16.55 39.853 3.348 51.768z" fill="#ffc7b6"/><path d="m315.15 221.967c-40.714-15.448 12.194-178.715-135.788-161.425 80.451 12.99 58.11 151.298 99.452 174.41 43.436 11.553 78.478 57.519 79.174 61.092 5.848 2.614 11.468 6.631 16.284 11.966 15.051 16.676 16.549 39.854 3.348 51.768-8.885 8.019-22.161 8.883-34.483 3.514-4.532 7.751-10.112 15.802-16.875 24.175-66.633 82.497-230.647 68.355-293.316-48.012-1.081-2.008-2.116-4.027-3.122-6.052 4.817 17.568 11.764 34.945 21.057 51.767 74.768 135.342 270.446 151.789 349.942 55.841 98.689-119.114-26.172-196.468-85.673-219.044z" fill="#ef95b6"/><path d="m183.023 177.64c22.014 4.136 44.168-40.221 31.358-67.363-7.896-16.73-31.499-.09-37.919 1.07-5.899 1.065-31.382.299-34.765 14.931-4.739 20.494 18.477 22.645 22.559 26.188 8.393 7.287 9.235 23.383 18.767 25.174z" fill="#8bb6ef"/><path d="m135.623 264.356c20.289-9.492 12.386-58.439-13.858-73-16.176-8.975-25.629 18.313-30.164 23.002-4.168 4.308-25.307 18.56-19.513 32.416 8.115 19.407 28.221 7.602 33.603 8.096 11.067 1.018 21.147 13.596 29.932 9.486z" fill="#ef8bbd"/><path d="m107.016 324.388c-17.822 13.57.258 59.737 28.989 68.415 17.709 5.349 21.174-23.321 24.615-28.863 3.162-5.092 20.807-23.494 12.213-35.811-12.037-17.251-29.19-1.459-34.555-.804-11.033 1.348-23.545-8.812-31.262-2.937z" fill="#ffe266"/><path d="m252.179 375.529c-18.521-12.598-56.571 19.191-55.689 49.191.543 18.492 28.832 12.684 35.18 14.19 5.832 1.384 28.88 12.281 37.835.224 12.543-16.887-7.874-28.146-10.197-33.026-4.777-10.035.891-25.124-7.129-30.579z" fill="#78eac4"/></g><g><g fill="#440a29"><path d="m444.583 325.436c-15.629-56.242-77.706-95.992-126.116-112.943-8.15-2.853-11.268-24.277-14.284-44.995-3.849-26.441-8.638-59.346-26.57-83.554-10.097-13.63-23.518-23.353-39.89-28.896-18.01-6.099-40.268-7.315-66.157-3.618-28.3 4.043-54.732 15.924-78.561 35.311-22.28 18.128-41.454 42.561-55.448 70.66-17.162 34.457-26.241 73.365-26.258 112.517-.018 42.072 10.631 83.604 30.796 120.105 37.571 68.009 108.739 113.186 190.375 120.849 8.05.756 16.02 1.128 23.89 1.128 62.284 0 118.007-23.328 152.19-64.586 34.747-41.938 46.871-82.977 36.033-121.978zm-51.49 109.171c-34.264 41.354-93.612 62.389-158.747 56.279-75.021-7.042-140.323-48.376-174.681-110.571-36.455-65.988-38.003-145.975-4.141-213.965 26.601-53.412 69.932-88.055 118.881-95.049 93.546-13.363 102.242 46.378 109.914 99.087 4.231 29.072 7.886 54.178 27.514 61.051 43.844 15.352 99.853 50.588 113.41 99.371 8.974 32.296-1.843 67.218-32.15 103.797z"/><path d="m319.081 294.919c-15.645 14.122-14.339 41.16 2.913 60.273 10.313 11.427 24.023 17.474 36.728 17.474 8.546 0 16.64-2.738 22.933-8.417 15.645-14.121 14.339-41.16-2.912-60.274-17.252-19.114-44.016-23.178-59.662-9.056zm54.504 60.389c-10.716 9.67-29.848 5.999-42.65-8.185s-14.499-33.591-3.784-43.263c4.046-3.651 9.29-5.401 14.942-5.401 9.317 0 19.74 4.757 27.708 13.585 12.802 14.184 14.499 33.592 3.784 43.264z"/><path d="m140.905 319.695c-1.215.622-2.862 1.466-3.507 1.67-3.455.367-7.771-.97-11.945-2.264-7.139-2.214-15.231-4.723-22.084.496-7.906 6.02-11.063 17.103-8.66 30.407 3.391 18.775 18.407 42.175 39.555 48.565 2.021.61 3.997.911 5.911.911 6.089 0 11.535-3.056 15.713-8.936 3.953-5.562 6.267-12.808 7.958-18.098.625-1.954 1.48-4.631 1.891-5.329.375-.604 1.299-1.815 2.277-3.097 6.307-8.267 19.432-25.472 9.758-39.337-12.275-17.59-29.508-8.757-36.867-4.988zm17.533 37.02c-1.259 1.65-2.253 2.953-2.934 4.049-1.174 1.891-1.995 4.46-3.131 8.017-4.94 15.462-8.627 20.068-14.627 18.259-15.962-4.822-28.392-23.706-31.186-39.176-1.57-8.693-.074-15.503 4.104-18.684.562-.427 1.365-.604 2.335-.604 2.341 0 5.652 1.027 8.885 2.03 5.193 1.611 11.079 3.434 17.122 2.698 2.298-.28 4.545-1.432 7.39-2.889 10.538-5.399 16.142-6.513 21.497 1.161 4.646 6.656-4.878 19.14-9.455 25.139z"/><path d="m267.377 406.18c-.975-.955-2.297-2.249-2.695-2.796-1.446-3.161-1.545-7.676-1.641-12.046-.165-7.473-.35-15.942-7.473-20.788h-.001c-8.217-5.589-19.729-5.067-31.585 1.432-16.729 9.17-34.16 30.833-33.511 52.915.26 8.827 5.398 15.206 14.469 17.963 6.53 1.985 14.137 1.884 19.688 1.806 2.052-.026 4.861-.067 5.652.103.692.165 2.133.657 3.659 1.177 5.431 1.854 14.1 4.814 22.474 4.813 6.801 0 13.409-1.952 17.926-8.035 12.789-17.217-1.052-30.761-6.962-36.544zm-2.706 29.364c-4.84 6.515-19.7 1.442-26.84-.996-1.964-.67-3.515-1.2-4.77-1.498-2.279-.56-5.758-.46-8.595-.426-16.214.207-21.772-1.821-21.955-8.081-.49-16.668 13.476-34.444 27.262-42.001 7.745-4.246 14.679-4.988 19.021-2.035 1.993 1.357 2.102 6.307 2.207 11.094.119 5.436.255 11.597 2.871 17.095.995 2.09 2.799 3.855 5.083 6.091 8.462 8.282 11.295 13.245 5.716 20.757z"/><path d="m105.29 260.882c3.456.37 7.389 2.59 11.195 4.739 4.731 2.671 9.92 5.6 15.398 5.6 2.059 0 4.16-.414 6.292-1.411 9.001-4.211 14.431-14.375 14.897-27.887.658-19.068-9.067-45.116-28.385-55.834-7.722-4.284-15.831-3.123-22.832 3.268-5.04 4.6-8.835 11.191-11.607 16.005-1.024 1.778-2.426 4.214-2.975 4.809-.495.512-1.654 1.5-2.882 2.545-7.914 6.746-24.381 20.784-17.859 36.381 8.274 19.789 26.987 14.804 34.977 12.676 1.319-.353 3.106-.829 3.781-.891zm-27.646-16.432c-3.131-7.488 8.818-17.674 14.56-22.569 1.579-1.347 2.827-2.41 3.724-3.337 1.548-1.599 2.894-3.937 4.757-7.174 8.099-14.064 12.681-17.788 18.158-14.75 14.581 8.09 22.734 29.176 22.192 44.887-.305 8.829-3.208 15.169-7.964 17.394-2.184 1.021-6.495-1.414-10.665-3.768-4.735-2.673-10.102-5.703-16.164-6.26-2.303-.214-4.745.437-7.833 1.26-11.442 3.049-17.156 2.952-20.765-5.683z"/><path d="m210.284 169.611c11.664-15.099 18.973-41.925 9.543-61.904-3.769-7.986-11.031-11.779-20.446-10.674-6.778.793-13.707 3.93-18.766 6.22-1.87.847-4.43 2.005-5.222 2.168-.7.126-2.217.252-3.824.384-10.364.859-31.93 2.643-35.739 19.117-4.832 20.896 13.271 27.772 21.002 30.708 1.276.484 3.006 1.141 3.59 1.484 2.59 2.319 4.487 6.417 6.323 10.383 3.14 6.783 6.699 14.471 15.166 16.061 1.312.247 2.634.368 3.96.368 8.547 0 17.259-5.054 24.413-14.315zm-26.149 2.11c-2.368-.445-4.449-4.939-6.461-9.285-2.284-4.934-4.873-10.527-9.471-14.519-1.748-1.517-4.108-2.413-7.095-3.548-11.07-4.204-15.652-7.618-13.544-16.735 1.829-7.909 17.478-9.203 24.998-9.827 2.068-.171 3.701-.306 4.97-.535 2.19-.395 4.647-1.507 8.049-3.047 7.911-3.581 13.276-5.347 16.965-5.347 3.206 0 5.146 1.334 6.389 3.968 7.117 15.08 1.429 36.96-8.182 49.401-5.4 6.992-11.455 10.439-16.618 9.474z"/><path d="m342.165 399.597c-3.326 0-6.022 2.696-6.022 6.022v13.462c0 3.326 2.696 6.022 6.022 6.022s6.022-2.696 6.022-6.022v-13.462c0-3.326-2.696-6.022-6.022-6.022z"/><path d="m309.078 380.713c-3.326 0-6.022 2.696-6.022 6.022v13.462c0 3.326 2.696 6.022 6.022 6.022s6.022-2.696 6.022-6.022v-13.462c0-3.326-2.696-6.022-6.022-6.022z"/></g><path d="m77.016 190.147c-1.374 0-2.769-.284-4.103-.882-5.058-2.27-7.318-8.209-5.048-13.266 2.007-4.472 4.335-9.059 6.919-13.63 2.727-4.825 8.851-6.526 13.676-3.798 4.826 2.728 6.526 8.851 3.799 13.676-2.28 4.034-4.326 8.062-6.08 11.969-1.671 3.724-5.33 5.931-9.163 5.931z" fill="#fff"/><path d="m100.411 152.223c-2.175 0-4.366-.704-6.207-2.154-4.353-3.431-5.1-9.743-1.669-14.095.941-1.194 1.826-2.28 2.706-3.32 3.579-4.232 9.912-4.76 14.145-1.181 4.232 3.579 4.761 9.912 1.181 14.144-.729.862-1.471 1.772-2.267 2.783-1.981 2.511-4.921 3.823-7.889 3.823z" fill="#fff"/></g><g><path d="m432.929 53.03c0 10.281-8.334 18.615-18.615 18.615s-18.615-8.334-18.615-18.615 8.334-18.615 18.615-18.615 18.615 8.334 18.615 18.615z" fill="#ffa585"/><ellipse cx="400.783" cy="142.186" fill="#ffa585" rx="7.883" ry="7.883" transform="matrix(.893 -.45 .45 .893 -21.103 195.633)"/><g fill="#ffc7b6"><path d="m322.727 1.884 6.324 17.781c.271.761.807 1.365 1.483 1.669l15.798 7.118c2.232 1.006 2.232 4.562 0 5.567l-15.798 7.118c-.676.305-1.212.908-1.483 1.669l-6.324 17.781c-.894 2.512-4.053 2.512-4.946 0l-6.324-17.781c-.271-.761-.807-1.365-1.483-1.669l-15.798-7.118c-2.232-1.006-2.232-4.562 0-5.567l15.798-7.118c.676-.305 1.212-.908 1.483-1.669l6.324-17.781c.893-2.512 4.052-2.512 4.946 0z"/><path d="m465.966 156.692 8.689 23.971c.372 1.026 1.109 1.84 2.038 2.251l21.708 9.595c3.067 1.356 3.067 6.149 0 7.505l-21.708 9.595c-.929.411-1.666 1.224-2.038 2.25l-8.689 23.971c-1.228 3.387-5.569 3.387-6.797 0l-8.689-23.971c-.372-1.026-1.109-1.84-2.038-2.25l-21.708-9.595c-3.067-1.356-3.067-6.15 0-7.505l21.708-9.595c.93-.411 1.666-1.224 2.038-2.251l8.689-23.971c1.228-3.387 5.57-3.387 6.797 0z"/></g></g></g></svg>